<svg xmlns="http://www.w3.org/2000/svg" xmlns:xlink="http://www.w3.org/1999/xlink" version="1.2" width="46.82mm" height="25.26mm" viewBox="8.5358 -0.0000 26.6404 14.3757">
<line transform="translate(8.5358, 9.8757)" stroke-linejoin="round" stroke-linecap="round" stroke-width="0.1000" stroke="currentColor" x1="0.0500" y1="-0.0000" x2="26.5904" y2="-0.0000"/>
<line transform="translate(8.5358, 8.8757)" stroke-linejoin="round" stroke-linecap="round" stroke-width="0.1000" stroke="currentColor" x1="0.0500" y1="-0.0000" x2="26.5904" y2="-0.0000"/>
<line transform="translate(8.5358, 7.8757)" stroke-linejoin="round" stroke-linecap="round" stroke-width="0.1000" stroke="currentColor" x1="0.0500" y1="-0.0000" x2="26.5904" y2="-0.0000"/>
<line transform="translate(8.5358, 6.8757)" stroke-linejoin="round" stroke-linecap="round" stroke-width="0.1000" stroke="currentColor" x1="0.0500" y1="-0.0000" x2="26.5904" y2="-0.0000"/>
<line transform="translate(8.5358, 5.8757)" stroke-linejoin="round" stroke-linecap="round" stroke-width="0.1000" stroke="currentColor" x1="0.0500" y1="-0.0000" x2="26.5904" y2="-0.0000"/>
<rect transform="translate(0.0000, 10.8757)" x="18.3806" y="-0.1000" width="1.9743" height="0.2000" ry="0.1000" fill="currentColor"/>
<rect transform="translate(0.0000, 11.8757)" x="18.3806" y="-0.1000" width="1.9743" height="0.2000" ry="0.1000" fill="currentColor"/>
<rect transform="translate(0.0000, 10.8757)" x="18.2883" y="-0.1000" width="2.0850" height="0.2000" ry="0.1000" fill="currentColor"/>
<rect transform="translate(0.0000, 11.8757)" x="18.2883" y="-0.1000" width="2.0850" height="0.2000" ry="0.1000" fill="currentColor"/>
<rect transform="translate(0.0000, 4.8757)" x="32.1187" y="-0.1000" width="1.9743" height="0.2000" ry="0.1000" fill="currentColor"/>
<rect transform="translate(34.9862, 7.8757)" x="0.0000" y="-2.0000" width="0.1900" height="4.0000" ry="0.0000" fill="currentColor"/>
<path transform="translate(32.6790, 1.3890) scale(0.0022, -0.0022)" d="M15 0c-7 0 -15 5 -15 14c0 2 1 5 1 7c19 166 232 159 232 334c0 56 -14 116 -62 116c-33 0 -66 -15 -66 -44c0 -24 31 -37 31 -61c0 -34 -27 -61 -61 -61s-61 27 -61 61c0 78 74 134 157 134c98 0 191 -55 191 -145c0 -144 -135 -156 -233 -206h7c36 0 74 -13 111 -40
c19 -14 40 -21 59 -21c22 0 40 10 46 31c2 7 7 11 13 11c7 0 15 -5 15 -14v-5c-19 -71 -84 -111 -146 -111c-38 0 -75 15 -101 47c-12 15 -28 22 -44 22c-29 0 -57 -21 -60 -56c-1 -9 -7 -13 -14 -13z" fill="currentColor"/>
<circle transform="translate(33.1058, 0.8256)" stroke-linejoin="round" stroke-linecap="round" fill="none" stroke="currentColor" stroke-width="0.1000" r="0.7756"/>
<path transform="translate(26.5082, 8.3757) scale(0.0040, -0.0040)" d="M220 138c56 0 109 -29 109 -91c0 -72 -56 -121 -103 -149c-36 -21 -76 -36 -117 -36c-56 0 -109 29 -109 91c0 72 56 121 103 149c36 21 76 36 117 36z" fill="currentColor"/>
<path transform="translate(31.0941, 5.4391) scale(0.0022, -0.0022)" d="M15 0c-7 0 -15 5 -15 14c0 2 1 5 1 7c19 166 232 159 232 334c0 56 -14 116 -62 116c-33 0 -66 -15 -66 -44c0 -24 31 -37 31 -61c0 -34 -27 -61 -61 -61s-61 27 -61 61c0 78 74 134 157 134c98 0 191 -55 191 -145c0 -144 -135 -156 -233 -206h7c36 0 74 -13 111 -40
c19 -14 40 -21 59 -21c22 0 40 10 46 31c2 7 7 11 13 11c7 0 15 -5 15 -14v-5c-19 -71 -84 -111 -146 -111c-38 0 -75 15 -101 47c-12 15 -28 22 -44 22c-29 0 -57 -21 -60 -56c-1 -9 -7 -13 -14 -13z" fill="currentColor"/>
<rect transform="translate(33.6989, 7.8757)" x="-0.0650" y="-5.4845" width="0.1300" height="3.7967" ry="0.0400" fill="currentColor"/>
<path transform="translate(32.4477, 6.3757) scale(0.0040, -0.0040)" d="M220 138c56 0 109 -29 109 -91c0 -72 -56 -121 -103 -149c-36 -21 -76 -36 -117 -36c-56 0 -109 29 -109 91c0 72 56 121 103 149c36 21 76 36 117 36z" fill="currentColor"/>
<path transform="translate(32.4477, 4.8757) scale(0.0040, -0.0040)" d="M220 138c56 0 109 -29 109 -91c0 -72 -56 -121 -103 -149c-36 -21 -76 -36 -117 -36c-56 0 -109 29 -109 91c0 72 56 121 103 149c36 21 76 36 117 36z" fill="currentColor"/>
<path transform="translate(28.1244, 6.9391) scale(0.0022, -0.0022)" d="M190 464c-54 0 -61 -71 -61 -141v-73v-73c0 -70 7 -141 61 -141s62 71 62 141c0 26 -1 51 -1 73s1 47 1 73c0 70 -8 141 -62 141zM190 500c118 0 190 -122 190 -250s-72 -250 -190 -250s-190 122 -190 250s72 250 190 250z" fill="currentColor"/>
<rect transform="translate(30.7291, 7.8757)" x="-0.0650" y="-4.7757" width="0.1300" height="3.0879" ry="0.0400" fill="currentColor"/>
<path transform="translate(29.4779, 6.3757) scale(0.0040, -0.0040)" d="M220 138c56 0 109 -29 109 -91c0 -72 -56 -121 -103 -149c-36 -21 -76 -36 -117 -36c-56 0 -109 29 -109 91c0 72 56 121 103 149c36 21 76 36 117 36z" fill="currentColor"/>
<rect transform="translate(27.7594, 7.8757)" x="-0.0650" y="-4.0669" width="0.1300" height="5.8790" ry="0.0400" fill="currentColor"/>
<path transform="translate(26.5082, 9.8757) scale(0.0040, -0.0040)" d="M220 138c56 0 109 -29 109 -91c0 -72 -56 -121 -103 -149c-36 -21 -76 -36 -117 -36c-56 0 -109 29 -109 91c0 72 56 121 103 149c36 21 76 36 117 36z" fill="currentColor"/>
<path transform="translate(21.4758, 7.8757)" stroke-width="0.0800" stroke-linejoin="round" stroke-linecap="round" stroke="currentColor" fill="currentColor" d="M1.651178 1.68506018806693C1.84491434377276 1.41194936221838 2.12244165622724 1.41194936221838 2.316178 1.68506018806693C2.12244165622724 1.53194936221838 1.84491434377276 1.53194936221838 1.651178 1.68506018806693z"/>
<path transform="translate(23.9920, 7.8757)" stroke-width="0.0800" stroke-linejoin="round" stroke-linecap="round" stroke="currentColor" fill="currentColor" d="M1.651178 -0.225C1.84491434377276 -0.49811082584855 2.12244165622724 -0.49811082584855 2.316178 -0.225C2.12244165622724 -0.37811082584855 1.84491434377276 -0.37811082584855 1.651178 -0.225z"/>
<path transform="translate(23.9920, 7.8757)" stroke-width="0.0800" stroke-linejoin="round" stroke-linecap="round" stroke="currentColor" fill="currentColor" d="M1.651178 1.63381704118641C1.84491434377276 1.36070621533786 2.12244165622724 1.36070621533786 2.316178 1.63381704118641C2.12244165622724 1.48070621533786 1.84491434377276 1.48070621533786 1.651178 1.63381704118641z"/>
<path transform="translate(29.4779, 7.8757)" stroke-width="0.0800" stroke-linejoin="round" stroke-linecap="round" stroke="currentColor" fill="currentColor" d="M1.651178 -2.225C1.95686086962322 -2.62202248348811 2.46407780754213 -2.62202248348811 2.76976067716535 -2.225C2.46407780754213 -2.50202248348811 1.95686086962322 -2.50202248348811 1.651178 -2.225z"/>
<polygon transform="translate(19.8958, 5.6857)" stroke-linejoin="round" stroke-linecap="round" stroke-width="0.0800" fill="currentColor" stroke="currentColor" points="13.8281 -3.5100 13.8281 -3.1100 0.0400 0.2000 0.0400 -0.2000"/>
<path transform="translate(26.5082, 7.3757) scale(0.0040, -0.0040)" d="M220 138c56 0 109 -29 109 -91c0 -72 -56 -121 -103 -149c-36 -21 -76 -36 -117 -36c-56 0 -109 29 -109 91c0 72 56 121 103 149c36 21 76 36 117 36z" fill="currentColor"/>
<rect transform="translate(18.7008, 7.8757)" x="-0.0650" y="4.2614" width="0.1300" height="2.2386" ry="0.0400" fill="currentColor"/>
<path transform="translate(20.4758, 11.3757) scale(0.0040, -0.0040)" d="M0 0c0 31 25 56 56 56s56 -25 56 -56s-25 -56 -56 -56s-56 25 -56 56z" fill="currentColor"/>
<rect transform="translate(19.9608, 7.8757)" x="-0.0650" y="-2.2055" width="0.1300" height="6.0177" ry="0.0400" fill="currentColor"/>
<path transform="translate(12.8358, 5.8757) scale(0.0040, -0.0040)" d="M216 -312c0 -10 -8 -19 -18 -19s-19 9 -19 19v145l-83 -31v-158c0 -10 -9 -19 -19 -19s-18 9 -18 19v145l-32 -12c-2 -1 -5 -1 -7 -1c-11 0 -20 9 -20 20v60c0 8 5 16 13 19l46 16v160l-32 -11c-2 -1 -5 -1 -7 -1c-11 0 -20 9 -20 20v60c0 8 5 15 13 18l46 17v158
c0 10 8 19 18 19s19 -9 19 -19v-145l83 31v158c0 10 9 19 19 19s18 -9 18 -19v-145l32 12c2 1 5 1 7 1c11 0 20 -9 20 -20v-60c0 -8 -5 -16 -13 -19l-46 -16v-160l32 11c2 1 5 1 7 1c11 0 20 -9 20 -20v-60c0 -8 -5 -15 -13 -18l-46 -17v-158zM96 65v-160l83 30v160z" fill="currentColor"/>
<path transform="translate(13.9358, 7.3757) scale(0.0040, -0.0040)" d="M216 -312c0 -10 -8 -19 -18 -19s-19 9 -19 19v145l-83 -31v-158c0 -10 -9 -19 -19 -19s-18 9 -18 19v145l-32 -12c-2 -1 -5 -1 -7 -1c-11 0 -20 9 -20 20v60c0 8 5 16 13 19l46 16v160l-32 -11c-2 -1 -5 -1 -7 -1c-11 0 -20 9 -20 20v60c0 8 5 15 13 18l46 17v158
c0 10 8 19 18 19s19 -9 19 -19v-145l83 31v158c0 10 9 19 19 19s18 -9 18 -19v-145l32 12c2 1 5 1 7 1c11 0 20 -9 20 -20v-60c0 -8 -5 -16 -13 -19l-46 -16v-160l32 11c2 1 5 1 7 1c11 0 20 -9 20 -20v-60c0 -8 -5 -15 -13 -18l-46 -17v-158zM96 65v-160l83 30v160z" fill="currentColor"/>
<path transform="translate(15.0358, 5.3757) scale(0.0040, -0.0040)" d="M216 -312c0 -10 -8 -19 -18 -19s-19 9 -19 19v145l-83 -31v-158c0 -10 -9 -19 -19 -19s-18 9 -18 19v145l-32 -12c-2 -1 -5 -1 -7 -1c-11 0 -20 9 -20 20v60c0 8 5 16 13 19l46 16v160l-32 -11c-2 -1 -5 -1 -7 -1c-11 0 -20 9 -20 20v60c0 8 5 15 13 18l46 17v158
c0 10 8 19 18 19s19 -9 19 -19v-145l83 31v158c0 10 9 19 19 19s18 -9 18 -19v-145l32 12c2 1 5 1 7 1c11 0 20 -9 20 -20v-60c0 -8 -5 -16 -13 -19l-46 -16v-160l32 11c2 1 5 1 7 1c11 0 20 -9 20 -20v-60c0 -8 -5 -15 -13 -18l-46 -17v-158zM96 65v-160l83 30v160z" fill="currentColor"/>
<text transform="translate(10.2257, 12.4059)" font-family="Century Schoolbook L" font-style="italic" font-size="1.3860" text-anchor="start" fill="currentColor">
<tspan>
8</tspan>
</text>
<path transform="translate(9.3358, 8.8757) scale(0.0040, -0.0040)" d="M266 -635h-6c-108 0 -195 88 -195 197c0 58 53 103 112 103c54 0 95 -47 95 -103c0 -52 -43 -95 -95 -95c-11 0 -21 2 -31 6c26 -39 68 -65 117 -65h4zM461 -203c68 24 113 95 113 164c0 90 -66 179 -173 190c24 -116 46 -231 60 -354zM74 28c0 -135 129 -247 264 -247
c28 0 55 2 82 6c-14 127 -37 245 -63 364c-79 -8 -124 -61 -124 -119c0 -44 25 -91 81 -123c5 -5 7 -10 7 -15c0 -11 -10 -22 -22 -22c-3 0 -6 1 -9 2c-80 43 -117 115 -117 185c0 88 58 174 160 197c-14 58 -29 117 -46 175c-107 -121 -213 -243 -213 -403zM335 -262
c-188 0 -333 172 -333 374c0 177 131 306 248 441c-19 62 -37 125 -45 190c-6 52 -7 104 -7 156c0 115 55 224 149 292c6 5 14 5 20 0c71 -84 133 -245 133 -358c0 -143 -86 -255 -180 -364c21 -68 39 -138 56 -207c4 0 9 1 13 1c155 0 256 -128 256 -261
c0 -76 -33 -154 -107 -210c-22 -17 -47 -28 -73 -36c3 -35 5 -70 5 -105c0 -19 -1 -39 -2 -58c-7 -119 -88 -225 -202 -228l1 43c93 2 153 92 159 191c1 18 2 37 2 55c0 31 -1 61 -4 92c-29 -5 -58 -8 -89 -8zM428 916c0 55 -4 79 -20 129c-99 -48 -162 -149 -162 -259
c0 -74 18 -133 36 -194c80 97 146 198 146 324z" fill="currentColor"/>
<path transform="translate(18.6358, 11.8757) scale(0.0040, -0.0040)" d="M315 65c0 24 -21 41 -42 41c-4 0 -8 0 -12 -1c-31 -9 -77 -40 -114 -64s-84 -53 -104 -78c-7 -8 -11 -18 -11 -28c0 -24 21 -41 42 -41c4 0 8 0 12 1c31 9 78 40 115 64s84 53 104 78c7 8 10 18 10 28zM264 137c47 0 83 -21 83 -72c0 -19 -4 -37 -10 -56
c-12 -38 -32 -74 -65 -96c-54 -36 -113 -51 -188 -51c-47 0 -84 22 -84 73c0 19 5 37 11 56c12 38 31 74 64 96c54 36 114 50 189 50z" fill="currentColor"/>
<rect transform="translate(25.2432, 7.8757)" x="-0.0650" y="-3.4663" width="0.1300" height="5.2785" ry="0.0400" fill="currentColor"/>
<path transform="translate(23.9920, 9.8757) scale(0.0040, -0.0040)" d="M220 138c56 0 109 -29 109 -91c0 -72 -56 -121 -103 -149c-36 -21 -76 -36 -117 -36c-56 0 -109 29 -109 91c0 72 56 121 103 149c36 21 76 36 117 36z" fill="currentColor"/>
<path transform="translate(23.9920, 8.3757) scale(0.0040, -0.0040)" d="M220 138c56 0 109 -29 109 -91c0 -72 -56 -121 -103 -149c-36 -21 -76 -36 -117 -36c-56 0 -109 29 -109 91c0 72 56 121 103 149c36 21 76 36 117 36z" fill="currentColor"/>
<rect transform="translate(22.7270, 7.8757)" x="-0.0650" y="-2.8657" width="0.1300" height="4.6779" ry="0.0400" fill="currentColor"/>
<path transform="translate(21.4758, 9.8757) scale(0.0040, -0.0040)" d="M220 138c56 0 109 -29 109 -91c0 -72 -56 -121 -103 -149c-36 -21 -76 -36 -117 -36c-56 0 -109 29 -109 91c0 72 56 121 103 149c36 21 76 36 117 36z" fill="currentColor"/>
</svg>
